# xmcd
#
# Track frame offsets: 
#        150
#        15538
#        30143
#        44563
#        61065
#        77935
#        91418
#        107478
#        119905
#        136420
#        158203
#
# Disc length: 2350 seconds
#
# Revision: 8
# Processed by: cddbd v1.5.2PL0 Copyright (c) Steve Scherf et al.
# Submitted via: ExactAudioCopy v0.99pb4
#
DISCID=88092c0b
DTITLE=BlackHawk - The Sky's The Limit
DYEAR=1998
DGENRE=Country
TTITLE0=Your Own Little Corner Of My Heart
TTITLE1=Who Am I Now
TTITLE2=There You Have It
TTITLE3=In My Heart Of Hearts
TTITLE4=Nobody Knows What To Say
TTITLE5=Goin' Down Fightin'
TTITLE6=Walkin' On Water
TTITLE7=Always Have, Always Will
TTITLE8=When I Find It, I'll Know It
TTITLE9=Think Again
TTITLE10=The Last Time
EXTD=
EXTT0=
EXTT1=
EXTT2=
EXTT3=
EXTT4=
EXTT5=
EXTT6=
EXTT7=
EXTT8=
EXTT9=
EXTT10=
PLAYORDER=
